<svg xmlns="http://www.w3.org/2000/svg" xmlns:xlink="http://www.w3.org/1999/xlink" width="500" zoomAndPan="magnify" viewBox="0 0 375 374.999991" height="500" preserveAspectRatio="xMidYMid meet" version="1.0"><defs><clipPath id="7c2d7f018d"><path d="M 128 115.03125 L 275 115.03125 L 275 280.03125 L 128 280.03125 Z M 128 115.03125 " clip-rule="nonzero"/></clipPath></defs><g clip-path="url(#7c2d7f018d)"><path fill="#000000" d="M 252.539062 152.90625 L 252.496094 152.863281 C 252.453125 152.644531 252.367188 152.429688 252.28125 152.214844 C 252.195312 152 252.109375 151.78125 251.980469 151.609375 C 251.894531 151.4375 251.765625 151.308594 251.589844 151.136719 C 251.460938 150.964844 251.289062 150.789062 251.074219 150.617188 C 250.945312 150.53125 250.773438 150.445312 250.597656 150.359375 C 250.339844 150.230469 250.082031 150.101562 249.824219 150.058594 C 249.738281 150.015625 249.648438 149.972656 249.5625 149.929688 C 249.476562 149.929688 249.347656 149.972656 249.261719 149.929688 C 249.132812 149.929688 249.046875 149.886719 248.917969 149.886719 L 224.371094 149.886719 L 224.371094 138.238281 C 224.371094 125.554688 214.019531 115.203125 201.339844 115.203125 C 188.613281 115.203125 178.304688 125.554688 178.304688 138.238281 L 178.304688 149.886719 L 153.714844 149.886719 C 151.945312 149.886719 150.394531 151.179688 150.09375 152.90625 L 146.210938 175.164062 L 153.671875 175.164062 L 156.777344 157.21875 L 178.304688 157.21875 L 178.304688 164.59375 C 178.304688 166.621094 179.941406 168.261719 181.96875 168.261719 C 183.996094 168.261719 185.636719 166.621094 185.636719 164.59375 L 185.636719 153.636719 C 185.636719 153.59375 185.636719 153.59375 185.636719 153.550781 C 185.636719 153.507812 185.636719 153.507812 185.636719 153.464844 L 185.636719 138.238281 C 185.636719 129.609375 192.667969 122.535156 201.335938 122.535156 C 209.964844 122.535156 217.039062 129.609375 217.039062 138.238281 L 217.039062 149.886719 L 197.542969 149.886719 C 195.515625 149.886719 193.875 151.523438 193.875 153.550781 C 193.875 155.578125 195.515625 157.21875 197.542969 157.21875 L 220.664062 157.21875 C 220.707031 157.21875 220.707031 157.21875 220.707031 157.21875 L 244.558594 157.21875 L 224.328125 273.125 L 136.589844 273.125 L 139.738281 255.179688 L 132.277344 255.179688 L 128.609375 276.144531 C 128.4375 277.222656 128.738281 278.300781 129.429688 279.164062 C 130.121094 279.984375 131.15625 280.457031 132.234375 280.457031 L 270.398438 280.457031 C 271.476562 280.457031 272.511719 279.984375 273.203125 279.164062 C 273.894531 278.300781 274.195312 277.222656 274.023438 276.144531 Z M 231.792969 273.167969 L 248.917969 174.945312 L 266.042969 273.167969 Z M 231.792969 273.167969 " fill-opacity="1" fill-rule="nonzero"/></g><path fill="#000000" d="M 161.4375 247.890625 L 120.113281 247.890625 C 118.085938 247.890625 116.445312 249.53125 116.445312 251.558594 C 116.445312 253.585938 118.085938 255.222656 120.113281 255.222656 L 161.4375 255.222656 C 163.464844 255.222656 165.105469 253.585938 165.105469 251.558594 C 165.105469 249.53125 163.464844 247.890625 161.4375 247.890625 Z M 161.4375 247.890625 " fill-opacity="1" fill-rule="nonzero"/><path fill="#000000" d="M 174.980469 175.207031 L 134.734375 175.207031 C 132.707031 175.207031 131.070312 176.84375 131.070312 178.871094 C 131.070312 180.898438 132.707031 182.539062 134.734375 182.539062 L 174.980469 182.539062 C 177.007812 182.539062 178.648438 180.898438 178.648438 178.871094 C 178.648438 176.84375 177.007812 175.207031 174.980469 175.207031 Z M 174.980469 175.207031 " fill-opacity="1" fill-rule="nonzero"/><path fill="#000000" d="M 120.113281 200.699219 L 167.132812 200.699219 C 169.160156 200.699219 170.796875 199.058594 170.796875 197.03125 C 170.796875 195.003906 169.160156 193.367188 167.132812 193.367188 L 120.113281 193.367188 C 118.085938 193.367188 116.445312 195.003906 116.445312 197.03125 C 116.445312 199.058594 118.085938 200.699219 120.113281 200.699219 Z M 120.113281 200.699219 " fill-opacity="1" fill-rule="nonzero"/><path fill="#000000" d="M 165.105469 215.191406 C 165.105469 213.164062 163.464844 211.527344 161.4375 211.527344 L 102.6875 211.527344 C 100.660156 211.527344 99.019531 213.164062 99.019531 215.191406 C 99.019531 217.21875 100.660156 218.859375 102.6875 218.859375 L 161.4375 218.859375 C 163.464844 218.859375 165.105469 217.21875 165.105469 215.191406 Z M 165.105469 215.191406 " fill-opacity="1" fill-rule="nonzero"/><path fill="#000000" d="M 171.875 229.6875 L 126.753906 229.6875 C 124.726562 229.6875 123.089844 231.324219 123.089844 233.351562 C 123.089844 235.378906 124.726562 237.019531 126.753906 237.019531 L 171.875 237.019531 C 173.902344 237.019531 175.542969 235.378906 175.542969 233.351562 C 175.542969 231.324219 173.902344 229.6875 171.875 229.6875 Z M 171.875 229.6875 " fill-opacity="1" fill-rule="nonzero"/></svg>