<svg xmlns="http://www.w3.org/2000/svg" xmlns:xlink="http://www.w3.org/1999/xlink" width="500" zoomAndPan="magnify" viewBox="0 0 375 374.999991" height="500" preserveAspectRatio="xMidYMid meet" version="1.0"><defs><g/><clipPath id="f5d4a4ead6"><path d="M 110 13.527344 L 286 13.527344 L 286 212.277344 L 110 212.277344 Z M 110 13.527344 " clip-rule="nonzero"/></clipPath></defs><g clip-path="url(#f5d4a4ead6)"><path fill="#000000" d="M 259.957031 59.140625 L 259.902344 59.085938 C 259.851562 58.828125 259.75 58.566406 259.644531 58.308594 C 259.539062 58.046875 259.4375 57.789062 259.28125 57.582031 C 259.175781 57.375 259.019531 57.21875 258.8125 57.007812 C 258.65625 56.800781 258.449219 56.59375 258.191406 56.386719 C 258.035156 56.28125 257.824219 56.179688 257.617188 56.074219 C 257.304688 55.917969 256.996094 55.761719 256.683594 55.710938 C 256.578125 55.660156 256.476562 55.605469 256.371094 55.554688 C 256.265625 55.554688 256.113281 55.605469 256.007812 55.554688 C 255.851562 55.554688 255.746094 55.503906 255.59375 55.503906 L 226.03125 55.503906 L 226.03125 41.476562 C 226.03125 26.203125 213.5625 13.734375 198.289062 13.734375 C 182.964844 13.734375 170.546875 26.203125 170.546875 41.476562 L 170.546875 55.503906 L 140.9375 55.503906 C 138.804688 55.503906 136.9375 57.0625 136.570312 59.140625 L 131.898438 85.945312 L 140.882812 85.945312 L 144.625 64.335938 L 170.546875 64.335938 L 170.546875 73.21875 C 170.546875 75.660156 172.523438 77.632812 174.964844 77.632812 C 177.40625 77.632812 179.378906 75.660156 179.378906 73.21875 L 179.378906 60.023438 C 179.378906 59.972656 179.378906 59.972656 179.378906 59.917969 C 179.378906 59.867188 179.378906 59.867188 179.378906 59.816406 L 179.378906 41.476562 C 179.378906 31.085938 187.847656 22.566406 198.289062 22.566406 C 208.679688 22.566406 217.199219 31.085938 217.199219 41.476562 L 217.199219 55.503906 L 193.71875 55.503906 C 191.277344 55.503906 189.300781 57.476562 189.300781 59.917969 C 189.300781 62.359375 191.277344 64.335938 193.71875 64.335938 L 221.5625 64.335938 C 221.617188 64.335938 221.617188 64.335938 221.617188 64.335938 L 250.34375 64.335938 L 225.980469 203.925781 L 120.3125 203.925781 L 124.105469 182.316406 L 115.117188 182.316406 L 110.699219 207.5625 C 110.492188 208.863281 110.855469 210.160156 111.6875 211.199219 C 112.519531 212.1875 113.765625 212.757812 115.0625 212.757812 L 281.464844 212.757812 C 282.761719 212.757812 284.007812 212.1875 284.839844 211.199219 C 285.671875 210.160156 286.035156 208.863281 285.828125 207.5625 Z M 234.96875 203.980469 L 255.59375 85.6875 L 276.214844 203.980469 Z M 234.96875 203.980469 " fill-opacity="1" fill-rule="nonzero"/></g><path fill="#000000" d="M 150.234375 173.535156 L 100.464844 173.535156 C 98.023438 173.535156 96.050781 175.511719 96.050781 177.953125 C 96.050781 180.394531 98.023438 182.367188 100.464844 182.367188 L 150.234375 182.367188 C 152.675781 182.367188 154.652344 180.394531 154.652344 177.953125 C 154.652344 175.511719 152.675781 173.535156 150.234375 173.535156 Z M 150.234375 173.535156 " fill-opacity="1" fill-rule="nonzero"/><path fill="#000000" d="M 166.546875 86 L 118.078125 86 C 115.636719 86 113.660156 87.972656 113.660156 90.414062 C 113.660156 92.855469 115.636719 94.832031 118.078125 94.832031 L 166.546875 94.832031 C 168.988281 94.832031 170.964844 92.855469 170.964844 90.414062 C 170.964844 87.972656 168.988281 86 166.546875 86 Z M 166.546875 86 " fill-opacity="1" fill-rule="nonzero"/><path fill="#000000" d="M 100.464844 116.703125 L 157.09375 116.703125 C 159.535156 116.703125 161.507812 114.726562 161.507812 112.285156 C 161.507812 109.84375 159.535156 107.871094 157.09375 107.871094 L 100.464844 107.871094 C 98.023438 107.871094 96.050781 109.84375 96.050781 112.285156 C 96.050781 114.726562 98.023438 116.703125 100.464844 116.703125 Z M 100.464844 116.703125 " fill-opacity="1" fill-rule="nonzero"/><path fill="#000000" d="M 154.652344 134.15625 C 154.652344 131.714844 152.675781 129.742188 150.234375 129.742188 L 79.476562 129.742188 C 77.035156 129.742188 75.0625 131.714844 75.0625 134.15625 C 75.0625 136.597656 77.035156 138.574219 79.476562 138.574219 L 150.234375 138.574219 C 152.675781 138.574219 154.652344 136.597656 154.652344 134.15625 Z M 154.652344 134.15625 " fill-opacity="1" fill-rule="nonzero"/><path fill="#000000" d="M 162.808594 151.613281 L 108.464844 151.613281 C 106.023438 151.613281 104.050781 153.585938 104.050781 156.027344 C 104.050781 158.46875 106.023438 160.445312 108.464844 160.445312 L 162.808594 160.445312 C 165.25 160.445312 167.222656 158.46875 167.222656 156.027344 C 167.222656 153.585938 165.25 151.613281 162.808594 151.613281 Z M 162.808594 151.613281 " fill-opacity="1" fill-rule="nonzero"/><g fill="#000000" fill-opacity="1"><g transform="translate(23.917493, 265.29231)"><g><path d="M 8.683594 -32.679688 L 0.652344 -32.679688 L 0.652344 -31.417969 L 14.660156 0.375 L 18.207031 0.375 L 32.070312 -31.417969 L 32.070312 -32.679688 L 24.042969 -32.679688 L 16.574219 -14.191406 L 16.339844 -14.191406 Z M 8.683594 -32.679688 "/></g></g></g><g fill="#000000" fill-opacity="1"><g transform="translate(58.871254, 265.29231)"><g><path d="M 24.554688 -32.679688 C 16.898438 -32.679688 11.71875 -32.679688 4.15625 -32.679688 C 4.15625 -21.847656 4.15625 -10.925781 4.15625 0 C 11.71875 0 17.320312 0 24.976562 0 C 24.976562 -2.472656 24.976562 -4.996094 24.976562 -7.421875 C 20.074219 -7.421875 17.273438 -7.421875 12.464844 -7.421875 C 12.464844 -9.382812 12.464844 -11.25 12.464844 -13.164062 L 23.574219 -13.164062 C 23.574219 -15.640625 23.574219 -18.113281 23.574219 -20.585938 L 12.464844 -20.585938 L 12.464844 -25.210938 C 17.273438 -25.210938 19.699219 -25.210938 24.554688 -25.210938 C 24.554688 -27.730469 24.554688 -30.25 24.554688 -32.679688 Z M 24.554688 -32.679688 "/></g></g></g><g fill="#000000" fill-opacity="1"><g transform="translate(89.065136, 265.29231)"><g><path d="M 29.269531 0.046875 L 32.257812 0.046875 L 32.257812 -32.679688 C 29.410156 -32.679688 26.5625 -32.679688 23.714844 -32.679688 L 23.714844 -16.667969 L 7.1875 -32.820312 L 4.15625 -32.820312 L 4.15625 0 C 7.003906 0 9.898438 0 12.792969 0 L 12.792969 -16.058594 Z M 29.269531 0.046875 "/></g></g></g><g fill="#000000" fill-opacity="1"><g transform="translate(127.65882, 265.29231)"><g><path d="M 8.964844 -25.210938 L 8.964844 0 C 11.71875 0 14.472656 0 17.226562 0 L 17.226562 -25.210938 L 25.210938 -25.210938 C 25.210938 -27.730469 25.210938 -30.203125 25.210938 -32.679688 L 0.933594 -32.679688 C 0.933594 -30.203125 0.933594 -27.730469 0.933594 -25.210938 Z M 8.964844 -25.210938 "/></g></g></g><g fill="#000000" fill-opacity="1"><g transform="translate(156.0794, 265.29231)"><g><path d="M 24.929688 0 L 33.097656 0 L 33.097656 -1.214844 L 18.347656 -33.097656 L 14.753906 -33.097656 L 0.046875 -1.214844 L 0.046875 0 L 8.214844 0 L 10.128906 -4.109375 L 23.015625 -4.109375 Z M 20.308594 -11.25 L 12.839844 -11.25 L 16.527344 -19.839844 Z M 20.308594 -11.25 "/></g></g></g><g fill="#000000" fill-opacity="1"><g transform="translate(191.499836, 265.29231)"><g/></g></g><g fill="#000000" fill-opacity="1"><g transform="translate(206.527404, 265.29231)"><g><path d="M 2.195312 -16.339844 C 2.242188 -5.230469 10.644531 0.375 18.953125 0.328125 C 25.910156 0.328125 33.238281 -3.316406 34.453125 -12.558594 C 31.605469 -12.558594 29.039062 -12.558594 26.234375 -12.558594 C 25.347656 -9.054688 22.5 -7.28125 18.953125 -7.28125 C 14.003906 -7.328125 10.832031 -11.53125 10.832031 -16.339844 C 10.832031 -21.753906 14.050781 -25.441406 18.953125 -25.441406 C 22.453125 -25.441406 24.929688 -23.949219 26.097656 -20.632812 C 28.945312 -20.632812 31.464844 -20.632812 34.3125 -20.632812 C 33.050781 -29.363281 25.722656 -33.050781 18.953125 -33.050781 C 10.644531 -33.050781 2.242188 -27.449219 2.195312 -16.339844 Z M 2.195312 -16.339844 "/></g></g></g><g fill="#000000" fill-opacity="1"><g transform="translate(245.401077, 265.29231)"><g><path d="M 12.511719 -32.679688 C 9.664062 -32.679688 6.910156 -32.679688 4.109375 -32.679688 L 4.109375 0 C 10.738281 0 17.644531 0 24.367188 0 C 24.367188 -2.800781 24.367188 -4.714844 24.367188 -7.515625 L 12.511719 -7.515625 C 12.511719 -21.429688 12.511719 -15.777344 12.511719 -32.679688 Z M 12.511719 -32.679688 "/></g></g></g><g fill="#000000" fill-opacity="1"><g transform="translate(273.541663, 265.29231)"><g><path d="M 13.863281 -7.328125 L 13.863281 -25.394531 L 17.691406 -25.394531 L 17.691406 -32.679688 L 1.773438 -32.679688 L 1.773438 -25.394531 L 5.601562 -25.394531 L 5.601562 -7.328125 L 1.445312 -7.328125 L 1.445312 0 L 18.019531 0 L 18.019531 -7.328125 Z M 13.863281 -7.328125 "/></g></g></g><g fill="#000000" fill-opacity="1"><g transform="translate(295.055751, 265.29231)"><g><path d="M 2.195312 -16.339844 C 2.242188 -5.230469 10.644531 0.375 18.953125 0.328125 C 25.910156 0.328125 33.238281 -3.316406 34.453125 -12.558594 C 31.605469 -12.558594 29.039062 -12.558594 26.234375 -12.558594 C 25.347656 -9.054688 22.5 -7.28125 18.953125 -7.28125 C 14.003906 -7.328125 10.832031 -11.53125 10.832031 -16.339844 C 10.832031 -21.753906 14.050781 -25.441406 18.953125 -25.441406 C 22.453125 -25.441406 24.929688 -23.949219 26.097656 -20.632812 C 28.945312 -20.632812 31.464844 -20.632812 34.3125 -20.632812 C 33.050781 -29.363281 25.722656 -33.050781 18.953125 -33.050781 C 10.644531 -33.050781 2.242188 -27.449219 2.195312 -16.339844 Z M 2.195312 -16.339844 "/></g></g></g><g fill="#000000" fill-opacity="1"><g transform="translate(333.929443, 265.29231)"><g><path d="M 12.699219 0 L 12.699219 -12.464844 C 13.773438 -12.464844 14.796875 -12.464844 15.917969 -12.652344 L 23.109375 0 L 32.398438 0 L 32.398438 -1.308594 L 23.527344 -15.6875 C 30.019531 -19.839844 29.832031 -26.003906 29.832031 -32.679688 C 26.9375 -32.679688 24.089844 -32.679688 21.242188 -32.679688 C 21.242188 -26.5625 21.660156 -20.308594 13.304688 -20.308594 L 12.699219 -20.308594 L 12.699219 -32.679688 C 9.804688 -32.679688 7.003906 -32.679688 4.203125 -32.679688 L 4.203125 0 C 7.003906 0 9.804688 0 12.699219 0 Z M 12.699219 0 "/></g></g></g></svg>